# xmcd
#
# Track frame offsets: 
#        150
#        19820
#        40332
#        55250
#        67250
#        82591
#        95190
#        110772
#        124346
#        142349
#        166106
#        177768
#        193339
#        209912
#        228418
#        249148
#        263485
#        276788
#        289099
#        306369
#
# Disc length: 4364 seconds
#
# Revision: 0
# Processed by: cddbd v1.5.2PL0 Copyright (c) Steve Scherf et al.
# Submitted via: ExactAudioCopy v1.0b3
#
DISCID=33110a14
DTITLE=Foster And Lloyd - Foster And Lloyd and Louder And Faster
DYEAR=2013
DGENRE=Country
TTITLE0=Turn Around
TTITLE1=Crazy Over You
TTITLE2=What Do You Want From Me This Time?
TTITLE3=Token Of Love
TTITLE4=Sure Thing
TTITLE5=Hard To Say No
TTITLE6=Part I Know By Heart
TTITLE7=Don't Go Out With Him
TTITLE8=Texas In 1880
TTITLE9=You Can Come Cryin' To Me
TTITLE10=Faster And Louder
TTITLE11=Fair Shake
TTITLE12=She Knows What She Wants
TTITLE13=Happy For A While
TTITLE14=Fat Lady Sings
TTITLE15=After I'm Gone
TTITLE16=I'll Always Be Here Loving You
TTITLE17=Suzette
TTITLE18=Before The Heartache Rolls In
TTITLE19=Lie To Yourself
EXTD=
EXTT0=
EXTT1=
EXTT2=
EXTT3=
EXTT4=
EXTT5=
EXTT6=
EXTT7=
EXTT8=
EXTT9=
EXTT10=
EXTT11=
EXTT12=
EXTT13=
EXTT14=
EXTT15=
EXTT16=
EXTT17=
EXTT18=
EXTT19=
PLAYORDER=
